<svg width="92" height="92" viewBox="0 0 68 68" fill="none" xmlns="http://www.w3.org/2000/svg">
<circle cx="34" cy="34" r="34" fill="#E9E9EC"/>
<path d="M45.2956 39.7074H23.3886C23.3914 39.017 23.171 38.3442 22.7603 37.7892C22.3497 37.2343 21.7706 36.8268 21.1096 36.6277V21.7732C21.6201 21.6297 22.0849 21.3568 22.459 20.9809C22.8331 20.605 23.1038 20.1389 23.2449 19.6277H33.5106C33.6605 20.1361 33.9354 20.5988 34.3102 20.9736C34.685 21.3484 35.1477 21.6233 35.6561 21.7732V26.5673L33.7364 28.4972L32.7098 27.4707C32.6259 27.3859 32.5259 27.3187 32.4158 27.2728C32.3057 27.2269 32.1875 27.2033 32.0682 27.2033C31.9489 27.2033 31.8308 27.2269 31.7207 27.2728C31.6106 27.3187 31.5106 27.3859 31.4266 27.4707C31.3416 27.5555 31.2741 27.6563 31.2281 27.7673C31.182 27.8783 31.1583 27.9973 31.1583 28.1174C31.1583 28.2376 31.182 28.3565 31.2281 28.4675C31.2741 28.5785 31.3416 28.6793 31.4266 28.7642L32.4532 29.7907L31.4266 30.8173C31.3416 30.9022 31.2741 31.003 31.2281 31.1139C31.182 31.2249 31.1583 31.3439 31.1583 31.464C31.1583 31.5842 31.182 31.7032 31.2281 31.8141C31.2741 31.9251 31.3416 32.0259 31.4266 32.1108C31.5106 32.1955 31.6106 32.2628 31.7207 32.3087C31.8308 32.3546 31.9489 32.3782 32.0682 32.3782C32.1875 32.3782 32.3057 32.3546 32.4158 32.3087C32.5259 32.2628 32.6259 32.1955 32.7098 32.1108L33.7364 31.0842L35.923 33.2708C36.007 33.3555 36.1069 33.4228 36.2171 33.4687C36.3272 33.5146 36.4453 33.5382 36.5646 33.5382C36.6839 33.5382 36.8021 33.5146 36.9122 33.4687C37.0223 33.4228 37.1222 33.3555 37.2062 33.2708L39.475 31.0739L40.5015 32.1005C40.5839 32.1957 40.685 32.2728 40.7985 32.327C40.912 32.3813 41.0356 32.4115 41.1613 32.4158C41.2871 32.4201 41.4124 32.3983 41.5293 32.3519C41.6463 32.3055 41.7524 32.2355 41.841 32.1461C41.9297 32.0568 41.9989 31.9501 42.0443 31.8328C42.0898 31.7155 42.1106 31.59 42.1053 31.4643C42.1 31.3386 42.0688 31.2153 42.0136 31.1022C41.9585 30.9891 41.8805 30.8886 41.7847 30.807L40.7582 29.7805L41.7847 28.7539C41.8698 28.669 41.9373 28.5682 41.9833 28.4572C42.0293 28.3463 42.053 28.2273 42.053 28.1072C42.053 27.987 42.0293 27.868 41.9833 27.7571C41.9373 27.6461 41.8698 27.5453 41.7847 27.4604C41.7007 27.3757 41.6008 27.3084 41.4907 27.2625C41.3806 27.2166 41.2624 27.193 41.1431 27.193C41.0238 27.193 40.9057 27.2166 40.7956 27.2625C40.6855 27.3084 40.5855 27.3757 40.5015 27.4604L39.475 28.487L37.5655 26.5673V21.7732C38.0951 21.615 38.5746 21.322 38.957 20.923C39.3394 20.5239 39.6116 20.0323 39.7471 19.4965C39.8825 18.9606 39.8765 18.3987 39.7297 17.8659C39.5828 17.333 39.3002 16.8474 38.9093 16.4566C38.5185 16.0658 38.0329 15.7831 37.5 15.6362C36.9672 15.4894 36.4053 15.4834 35.8694 15.6188C35.3336 15.7543 34.842 16.0265 34.443 16.4089C34.0439 16.7913 33.7509 17.2708 33.5927 17.8004H23.327C23.1659 17.2765 22.8726 16.8029 22.4754 16.4253C22.0781 16.0476 21.5904 15.7785 21.0591 15.644C20.5277 15.5095 19.9707 15.514 19.4416 15.6571C18.9126 15.8003 18.4292 16.0772 18.0382 16.4613C17.6472 16.8454 17.3616 17.3236 17.209 17.8501C17.0564 18.3765 17.0419 18.9333 17.1669 19.467C17.2919 20.0007 17.5522 20.4931 17.9227 20.8971C18.2931 21.301 18.7614 21.6027 19.2823 21.7732V36.6482C18.6212 36.8474 18.0422 37.2548 17.6316 37.8098C17.2209 38.3647 17.0005 39.0375 17.0033 39.7279C17.0033 40.0256 17.0033 40.3028 17.0033 40.5492C16.9989 40.5764 16.9989 40.6041 17.0033 40.6313V46.1132C17.0114 47.8023 17.6874 49.4196 18.8837 50.612C20.08 51.8045 21.6995 52.4753 23.3886 52.478H45.2956C46.9891 52.478 48.6132 51.8052 49.8107 50.6078C51.0082 49.4103 51.6809 47.7862 51.6809 46.0927C51.6809 44.3992 51.0082 42.7751 49.8107 41.5776C48.6132 40.3801 46.9891 39.7074 45.2956 39.7074V39.7074ZM38.1096 29.7805L36.6108 31.3306L35.0812 29.7805L36.6108 28.2406L38.1096 29.7805ZM45.2956 48.8234C44.7526 48.8254 44.2213 48.6661 43.769 48.3657C43.3167 48.0653 42.9638 47.6373 42.755 47.1361C42.5463 46.6348 42.4912 46.0829 42.5966 45.5502C42.702 45.0176 42.9633 44.5282 43.3472 44.1443C43.7312 43.7603 44.2205 43.4991 44.7531 43.3937C45.2858 43.2882 45.8378 43.3434 46.339 43.5521C46.8403 43.7608 47.2682 44.1137 47.5686 44.566C47.869 45.0184 48.0283 45.5497 48.0263 46.0927C48.0263 46.8169 47.7386 47.5115 47.2265 48.0236C46.7144 48.5357 46.0198 48.8234 45.2956 48.8234ZM20.6579 46.0927C20.6559 45.5497 20.8152 45.0184 21.1156 44.566C21.4159 44.1137 21.8439 43.7608 22.3452 43.5521C22.8464 43.3434 23.3984 43.2882 23.931 43.3937C24.4637 43.4991 24.953 43.7603 25.337 44.1443C25.7209 44.5282 25.9822 45.0176 26.0876 45.5502C26.193 46.0829 26.1379 46.6348 25.9292 47.1361C25.7204 47.6373 25.3675 48.0653 24.9152 48.3657C24.4629 48.6661 23.9316 48.8254 23.3886 48.8234C22.6652 48.8207 21.9722 48.5321 21.4607 48.0206C20.9492 47.5091 20.6606 46.8161 20.6579 46.0927V46.0927ZM40.7274 46.0927C40.7274 46.6352 40.5663 47.1656 40.2647 47.6165C39.9631 48.0675 39.5344 48.4188 39.033 48.626C38.5315 48.8331 37.9799 48.8868 37.4479 48.7802C36.9159 48.6736 36.4276 48.4115 36.0446 48.0272C35.6617 47.6428 35.4015 47.1535 35.2969 46.6211C35.1923 46.0887 35.248 45.5373 35.4571 45.0366C35.6661 44.536 36.019 44.1086 36.4711 43.8087C36.9232 43.5087 37.4541 43.3497 37.9967 43.3517C38.7219 43.3545 39.4164 43.6444 39.9282 44.1582C40.44 44.6719 40.7274 45.3675 40.7274 46.0927V46.0927ZM33.4284 46.0927C33.4284 46.6348 33.2677 47.1647 32.9665 47.6155C32.6653 48.0662 32.2373 48.4175 31.7364 48.625C31.2356 48.8324 30.6845 48.8867 30.1528 48.781C29.6211 48.6752 29.1327 48.4142 28.7494 48.0308C28.366 47.6475 28.105 47.1591 27.9992 46.6274C27.8935 46.0957 27.9477 45.5446 28.1552 45.0438C28.3627 44.5429 28.714 44.1148 29.1647 43.8137C29.6155 43.5125 30.1454 43.3517 30.6875 43.3517C31.4144 43.3517 32.1116 43.6405 32.6256 44.1545C33.1397 44.6686 33.4284 45.3657 33.4284 46.0927V46.0927Z" fill="#0B7572"/>
<path d="M23.3885 47.007C23.8931 47.007 24.3022 46.5979 24.3022 46.0933C24.3022 45.5887 23.8931 45.1797 23.3885 45.1797C22.8839 45.1797 22.4749 45.5887 22.4749 46.0933C22.4749 46.5979 22.8839 47.007 23.3885 47.007Z" fill="#0B7572"/>
<path d="M30.6876 47.007C31.1922 47.007 31.6012 46.5979 31.6012 46.0933C31.6012 45.5887 31.1922 45.1797 30.6876 45.1797C30.183 45.1797 29.7739 45.5887 29.7739 46.0933C29.7739 46.5979 30.183 47.007 30.6876 47.007Z" fill="#0B7572"/>
<path d="M37.9959 47.007C38.5005 47.007 38.9096 46.5979 38.9096 46.0933C38.9096 45.5887 38.5005 45.1797 37.9959 45.1797C37.4913 45.1797 37.0823 45.5887 37.0823 46.0933C37.0823 46.5979 37.4913 47.007 37.9959 47.007Z" fill="#0B7572"/>
<path d="M45.2952 47.007C45.7998 47.007 46.2089 46.5979 46.2089 46.0933C46.2089 45.5887 45.7998 45.1797 45.2952 45.1797C44.7906 45.1797 44.3816 45.5887 44.3816 46.0933C44.3816 46.5979 44.7906 47.007 45.2952 47.007Z" fill="#0B7572"/>
</svg>
