<svg width="92" height="92" viewBox="0 0 68 68" fill="none" xmlns="http://www.w3.org/2000/svg">
<circle cx="34" cy="34" r="34" fill="#E9E9EC"/>
<path d="M24.95 42.3935L40.1614 48.7497V33.2667L24.95 27.6167V42.3935Z" fill="#0B7572"/>
<path d="M51.8438 34.2987L47.6064 35.8199V31.5281L42.0107 33.4838V48.7496L57.7654 42.3934V27.8882L51.8438 30.0069V34.2987ZM46.7915 45.2727L46.1396 45.5443V42.1217L46.7915 41.9044V45.2727ZM47.9323 44.8381L47.2804 45.1097V41.6871L47.9323 41.4698V44.8381ZM50.214 43.9145L49.5621 44.1318V40.7636L50.214 40.5463V43.9145V43.9145ZM51.3549 43.4256L50.703 43.6972V40.3833L51.3549 40.166V43.4256ZM53.6366 39.2424L54.2885 39.0251V42.2304L53.6366 42.502V39.2424ZM52.3328 39.7314L52.9847 39.5141V42.7736L52.3328 43.0453V39.7314Z" fill="#0B7572"/>
<path d="M51.8423 27.8885L57.7639 25.7154L41.3573 19.9568L36.0876 21.8039L51.8423 27.7798V27.8885Z" fill="#0B7572"/>
<path d="M31.4148 23.4336L24.95 25.7153L41.3566 31.6912L47.5498 29.4638L31.4148 23.4336Z" fill="#0B7572"/>
<path d="M8.87036 40.981H22.3433V38.2646H10.1199L8.87036 40.981Z" fill="#0B7572"/>
<path d="M11.0986 36.2007H22.3442V33.4844H12.3481L11.0986 36.2007Z" fill="#0B7572"/>
<path d="M13.3252 31.2563V31.4736H22.3434V28.7573H14.5204L13.3252 31.2563Z" fill="#0B7572"/>
</svg>
